#!OML:ASF H:\Terrain\Patient Classification 1\Takeo\Monday\TakeoMonday.ASF
:FULLY-SPECIFIED
:DEGREES
452
root 4.47529 16.4728 0.874662 -173.956 62.8794 -173.043
lowerback 15.1752 0.160879 1.04277
upperback 8.563 1.03777 -0.874874
thorax 0.583447 0.873111 -1.64671
lowerneck 1.72938 -19.3934 -13.5138
upperneck 0.557405 -26.8098 17.7126
head 4.10271 -13.356 5.59559
rclavicle 5.22804e-014 -9.54166e-015
rhumerus 53.4837 57.5786 -65.6244
rradius 40.8929
rwrist 9.42296
rhand -40.9909 57.6886
rfingers 7.12502
rthumb -13.9228 28.1747
lclavicle 5.22804e-014 -9.54166e-015
lhumerus -12.5951 6.50984 90.0325
lradius 104.46
lwrist 21.5037
lhand -53.3189 18.1752
lfingers 7.12502
lthumb -25.7712 46.4499
rfemur -18.8808 -12.3251 12.9964
rtibia 51.7295
rfoot -25.6421 -17.2103
rtoes 0.317098
lfemur -27.4605 10.85 -12.8619
ltibia 55.5199
lfoot -21.4319 3.18383
ltoes -2.40451
453
root 4.48679 16.476 0.884241 -174.21 63.3147 -173.303
lowerback 15.0834 0.230606 0.960379
upperback 8.6608 1.12575 -1.0547
thorax 0.741826 0.924137 -1.79721
lowerneck 1.6945 -19.434 -13.3006
upperneck 0.522279 -26.8497 17.6386
head 4.0644 -13.3757 5.54765
rclavicle -1.05356e-014 1.98785e-014
rhumerus 52.94 57.6218 -65.9078
rradius 40.5899
rwrist 9.54699
rhand -41.1129 57.5862
rfingers 7.12502
rthumb -14.0404 28.0804
lclavicle -1.05356e-014 1.98785e-014
lhumerus -13.0189 6.48433 90.1134
lradius 104.199
lwrist 22.2772
lhand -54.0153 17.0961
lfingers 7.12502
lthumb -26.4379 45.2723
rfemur -18.9563 -12.3972 12.9663
rtibia 51.3654
rfoot -24.2662 -18.3877
rtoes -4.81114
lfemur -27.2735 10.9529 -12.9593
ltibia 55.5112
lfoot -21.5081 3.4904
ltoes -2.3272
454
root 4.49708 16.4657 0.901784 -174.671 63.6326 -173.913
lowerback 14.9802 0.327244 0.600009
upperback 8.67365 1.20648 -1.24861
thorax 0.811108 0.956955 -1.80546
lowerneck 1.51912 -19.4169 -12.6551
upperneck 0.586687 -26.7747 17.2285
head 3.95488 -13.3322 5.36924
rclavicle -4.17448e-015 2.3059e-014
rhumerus 51.7833 57.4942 -66.9786
rradius 40.0631
rwrist 9.78546
rhand -41.011 57.885
rfingers 7.12502
rthumb -13.9422 28.3724
lclavicle -4.17448e-015 2.3059e-014
lhumerus -13.3514 6.43869 90.259
lradius 103.676
lwrist 23.2089
lhand -53.8916 15.7715
lfingers 7.12502
lthumb -26.3196 43.9654
rfemur -19.7606 -13.3333 13.229
rtibia 51.1979
rfoot -18.0618 -23.1814
rtoes -26.0348
lfemur -27.2705 10.9879 -13.2299
ltibia 55.448
lfoot -21.321 3.95584
ltoes -2.69755
455
root 4.50296 16.4601 0.920273 -174.756 63.7874 -174.098
lowerback 14.9212 0.432308 0.49535
upperback 8.63427 1.32608 -1.35755
thorax 0.805647 1.01354 -1.87609
lowerneck 1.54634 -19.4365 -12.2842
upperneck 0.708674 -26.7962 17.0565
head 3.91668 -13.3424 5.28351
rclavicle -1.66979e-014 -3.97569e-014
rhumerus 50.4258 57.2749 -68.04
rradius 39.5695
rwrist 9.85813
rhand -40.8133 57.15
rfingers 7.12502
rthumb -13.7516 27.6245
lclavicle -1.66979e-014 -3.97569e-014
lhumerus -13.6965 6.11673 90.5528
lradius 102.94
lwrist 23.9331
lhand -52.3969 17.3851
lfingers 7.12502
lthumb -24.8879 45.7849
rfemur -20.1567 -13.6958 13.4272
rtibia 51.234
rfoot -15.3699 -24.4312
rtoes -32.9181
lfemur -27.291 10.9468 -13.271
ltibia 55.3599
lfoot -21.2536 4.27156
ltoes -3.2993
456
root 4.50714 16.4878 0.93654 -174.496 63.9107 -173.922
lowerback 14.8394 0.458277 0.532611
upperback 8.59873 1.35733 -1.33971
thorax 0.812358 1.02671 -1.8813
lowerneck 1.60978 -19.4284 -12.4911
upperneck 0.811164 -26.8126 17.1392
head 3.97924 -13.3502 5.32397
rclavicle 1.39149e-014 -2.3059e-014
rhumerus 49.4595 57.3062 -68.5307
rradius 39.1957
rwrist 9.61586
rhand -40.2323 55.5111
rfingers 7.12502
rthumb -13.1917 25.9484
lclavicle 1.39149e-014 -2.3059e-014
lhumerus -14.1683 5.98168 90.8172
lradius 102.308
lwrist 24.5562
lhand -52.4906 15.8936
lfingers 7.12502
lthumb -24.9777 44.2809
rfemur -19.3534 -11.8431 12.722
rtibia 51.6834
rfoot -25.7173 -16.3354
rtoes 1.03446
lfemur -27.2341 10.9186 -13.1362
ltibia 55.1633
lfoot -21.1961 4.46579
ltoes -3.92531
457
root 4.514 16.4933 0.949687 -174.447 64.153 -173.956
lowerback 14.7534 0.467797 0.545382
upperback 8.55212 1.36219 -1.42583
thorax 0.811119 1.028 -1.97789
lowerneck 1.78363 -19.3877 -12.6668
upperneck 0.87428 -26.7889 17.2248
head 4.00336 -13.3454 5.38213
rclavicle 3.65764e-014 -2.70347e-014
rhumerus 48.3825 57.321 -69.1901
rradius 38.8479
rwrist 9.45631
rhand -39.6374 54.8
rfingers 7.12502
rthumb -12.6182 25.2011
lclavicle 3.65764e-014 -2.70347e-014
lhumerus -14.6882 5.79255 90.7886
lradius 101.597
lwrist 25.1842
lhand -52.3758 15.6627
lfingers 7.12502
lthumb -24.8677 44.0653
rfemur -19.695 -11.9475 12.8288
rtibia 51.9651
rfoot -25.3295 -16.7637
rtoes -2.34222
lfemur -27.1903 11.0023 -13.1192
ltibia 54.994
lfoot -21.1615 4.55518
ltoes -4.3741
458
root 4.52643 16.4996 0.961239 -174.463 64.536 -173.937
lowerback 14.5865 0.470656 0.611827
upperback 8.62205 1.37783 -1.6031
thorax 0.980886 1.04611 -2.19741
lowerneck 1.99422 -19.2869 -12.7484
upperneck 0.903874 -26.6867 17.3993
head 4.00153 -13.304 5.47187
rclavicle 1.35174e-014 -1.82882e-014
rhumerus 47.4105 57.2829 -69.8715
rradius 38.4667
rwrist 9.37567
rhand -39.2052 54.6645
rfingers 7.12502
rthumb -12.2015 25.0404
lclavicle 1.35174e-014 -1.82882e-014
lhumerus -15.075 5.34976 90.5917
lradius 100.676
lwrist 25.4065
lhand -52.396 16.8675
lfingers 7.12502
lthumb -24.8871 45.2675
rfemur -19.8156 -11.8045 12.8325
rtibia 52.2029
rfoot -25.5107 -16.4315
rtoes -2.44199
lfemur -26.9438 11.1577 -13.0639
ltibia 54.7858
lfoot -21.2155 4.66228
ltoes -4.39599
459
root 4.54023 16.5127 0.979131 -174.266 64.9097 -173.692
lowerback 14.3198 0.342344 0.62641
upperback 8.80244 1.22449 -1.69427
thorax 1.30971 0.98079 -2.27157
lowerneck 1.84363 -19.1602 -12.4533
upperneck 0.763526 -26.4617 17.1379
head 3.8739 -13.1929 5.39896
rclavicle -7.15625e-015 7.95139e-015
rhumerus 46.9753 57.5377 -70.1239
rradius 38.1162
rwrist 9.28102
rhand -39.0681 54.2176
rfingers 7.12502
rthumb -12.0693 24.5856
lclavicle -7.15625e-015 7.95139e-015
lhumerus -15.3023 5.34716 90.5303
lradius 99.7634
lwrist 25.1736
lhand -52.6406 17.2889
lfingers 7.12502
lthumb -25.1215 45.6561
rfemur -19.7959 -11.6223 12.9993
rtibia 52.0965
rfoot -25.5284 -16.2522
rtoes -2.63711
lfemur -26.6767 11.2192 -12.8649
ltibia 54.5998
lfoot -21.1968 4.94586
ltoes -3.42866
460
root 4.55101 16.5218 1.00622 -174.103 65.2223 -173.562
lowerback 14.0343 0.239453 0.735454
upperback 8.96961 1.116 -1.89476
thorax 1.64119 0.945369 -2.5205
lowerneck 1.10566 -19.4714 -10.0835
upperneck 0.538551 -26.6215 14.9617
head 3.31974 -13.2657 4.5299
rclavicle 1.70955e-014 -4.53229e-014
rhumerus 46.1236 57.4773 -70.8821
rradius 37.7498
rwrist 9.20255
rhand -39.6496 54.0337
rfingers 7.12502
rthumb -12.63 24.4356
lclavicle 1.70955e-014 -4.53229e-014
lhumerus -15.2583 5.31597 90.3608
lradius 98.8574
lwrist 25.6214
lhand -52.1067 16.8541
lfingers 7.12502
lthumb -24.6098 45.2921
rfemur -19.8386 -11.4562 13.1857
rtibia 51.9498
rfoot -25.382 -16.2935
rtoes -3.02507
lfemur -26.5269 11.2254 -12.6948
ltibia 54.4185
lfoot -21.1074 5.36357
ltoes -2.76028
461
root 4.55761 16.5299 1.03244 -174.209 65.4443 -173.604
lowerback 14.0221 0.294266 0.618078
upperback 9.0443 1.18501 -1.93469
thorax 1.7297 0.981108 -2.50302
lowerneck 1.94776 -19.0684 -12.2114
upperneck 0.317111 -26.3067 17.3793
head 3.70602 -13.1328 5.49297
rclavicle -2.14687e-014 4.6118e-014
rhumerus 44.6001 57.1387 -71.8938
rradius 37.2856
rwrist 8.75298
rhand -39.3749 53.8867
rfingers 7.12502
rthumb -12.3652 24.2724
lclavicle -2.14687e-014 4.6118e-014
lhumerus -15.2412 4.91093 90.5016
lradius 98.0194
lwrist 26.3166
lhand -50.6468 18.3708
lfingers 7.12502
lthumb -23.2097 46.9923
rfemur -19.7258 -11.3339 13.2257
rtibia 51.8131
rfoot -25.4678 -16.044
rtoes -1.99626
lfemur -26.3138 11.1438 -12.597
ltibia 54.2558
lfoot -21.0964 5.73565
ltoes -3.50815
462
root 4.5599 16.5338 1.05233 -174.257 65.5693 -173.496
lowerback 14.1954 0.252651 0.409259
upperback 9.08866 1.11186 -1.76329
thorax 1.67344 0.932806 -2.20009
lowerneck 2.70037 -18.7742 -13.2222
upperneck -0.420073 -25.9777 18.444
head 3.60414 -13.0241 6.03484
rclavicle -3.1408e-014 1.59028e-015
rhumerus 43.1228 57.0752 -72.5611
rradius 36.9607
rwrist 8.22135
rhand -38.4004 53.6555
rfingers 7.12502
rthumb -11.4254 23.9868
lclavicle -3.1408e-014 1.59028e-015
lhumerus -15.4325 4.68568 90.9394
lradius 97.2887
lwrist 26.5794
lhand -49.0176 20.9122
lfingers 7.12502
lthumb -21.6459 49.7222
rfemur -19.5311 -11.3054 13.2578
rtibia 51.7165
rfoot -25.7281 -15.4537
rtoes -0.383227
lfemur -26.0849 11.0544 -12.4531
ltibia 54.129
lfoot -21.0766 5.8907
ltoes -4.03733
463
root 4.56509 16.5327 1.0713 -174.328 65.7689 -173.466
lowerback 14.2761 0.106394 0.356973
upperback 9.12983 0.916801 -1.76293
thorax 1.66564 0.83453 -2.14729
lowerneck 2.93721 -18.5373 -13.6145
upperneck -0.795878 -25.6626 18.7328
head 3.49841 -12.8904 6.2402
rclavicle 3.29983e-014 -1.82882e-014
rhumerus 41.6385 57.0684 -73.4255
rradius 36.7032
rwrist 8.07031
rhand -38.8276 53.7148
rfingers 7.12502
rthumb -11.8374 24.0693
lclavicle 3.29983e-014 -1.82882e-014
lhumerus -15.6359 4.56161 90.8752
lradius 96.5181
lwrist 26.9526
lhand -47.215 22.6638
lfingers 7.12502
lthumb -19.914 51.6635
rfemur -19.4717 -11.3541 13.2859
rtibia 51.6748
rfoot -25.6735 -15.2663
rtoes -0.755743
lfemur -25.885 11.1938 -12.36
ltibia 54.0131
lfoot -20.9364 5.93182
ltoes -4.3991
464
root 4.57476 16.5379 1.09072 -174.588 66.0939 -173.776
lowerback 14.2675 0.126909 0.167816
upperback 9.04537 0.908972 -1.76801
thorax 1.57731 0.816679 -2.04591
lowerneck 2.84085 -18.4989 -13.7621
upperneck -0.48994 -25.6152 18.2325
head 3.54292 -12.856 6.10508
rclavicle 3.10104e-014 -2.14687e-014
rhumerus 39.445 56.6656 -74.9287
rradius 36.1967
rwrist 8.2593
rhand -39.7496 53.9111
rfingers 7.12502
rthumb -12.7264 24.3189
lclavicle 3.10104e-014 -2.14687e-014
lhumerus -16.0373 4.21684 90.8925
lradius 95.7993
lwrist 27.4426
lhand -45.1634 24.3539
lfingers 7.12502
lthumb -17.9408 53.5464
rfemur -19.6039 -11.4502 13.2335
rtibia 51.6528
rfoot -25.2233 -15.5342
rtoes -3.11514
lfemur -25.7548 11.3721 -12.4498
ltibia 53.8863
lfoot -20.7893 6.20228
ltoes -6.10386
465
root 4.5833 16.5448 1.11653 -174.753 66.4355 -174.104
lowerback 14.3342 0.283641 0.00403472
upperback 8.81425 1.06734 -1.82146
thorax 1.30067 0.877805 -2.03389
lowerneck 2.99711 -18.6 -13.586
upperneck -0.265994 -25.7536 17.6858
head 3.50426 -12.9297 5.92823
rclavicle -3.69739e-014 2.3059e-014
rhumerus 36.4415 55.6239 -77.3685
rradius 35.5339
rwrist 8.61844
rhand -39.9499 53.9532
rfingers 7.12502
rthumb -12.9195 24.3731
lclavicle -3.69739e-014 2.3059e-014
lhumerus -16.7039 3.52872 91.1908
lradius 95.2496
lwrist 28.0231
lhand -43.4358 25.5899
lfingers 7.12502
lthumb -16.278 54.9266
rfemur -19.8193 -11.3788 13.1944
rtibia 51.5894
rfoot -24.952 -15.3909
rtoes -3.69843
lfemur -25.7577 11.4079 -12.5302
ltibia 53.7575
lfoot -20.8159 6.41695
ltoes -6.7866
466
root 4.59064 16.5492 1.14788 -174.168 66.7941 -173.538
lowerback 14.4203 0.383916 0.160724
upperback 8.67679 1.20027 -1.93268
thorax 1.11962 0.945916 -2.25975
lowerneck 3.20849 -18.5765 -13.4351
upperneck -0.239937 -25.7451 17.8305
head 3.47967 -12.9352 5.97379
rclavicle -1.31198e-014 3.89618e-014
rhumerus 34.0002 54.5162 -79.521
rradius 34.9421
rwrist 8.63946
rhand -39.6047 53.439
rfingers 7.12502
rthumb -12.5867 23.8382
lclavicle -1.31198e-014 3.89618e-014
lhumerus -17.065 2.83552 91.2229
lradius 94.5803
lwrist 28.7325
lhand -41.8445 26.0723
lfingers 7.12502
lthumb -14.7454 55.5278
rfemur -19.8749 -11.0902 13.5547
rtibia 51.4242
rfoot -25.0585 -15.0055
rtoes -2.15823
lfemur -25.6714 11.4771 -12.1454
ltibia 53.6402
lfoot -20.8934 6.3891
ltoes -6.18344
